<?xml version="1.0" standalone="no"?>
<!DOCTYPE svg PUBLIC "-//W3C//DTD SVG 20010904//EN"
 "http://www.w3.org/TR/2001/REC-SVG-20010904/DTD/svg10.dtd">
<svg version="1.0" xmlns="http://www.w3.org/2000/svg"
 width="120.000000pt" height="150.000000pt" viewBox="0 0 120.000000 150.000000"
 preserveAspectRatio="xMidYMid meet">

<g transform="translate(0.000000,300.000000) scale(0.100000,-0.100000)"
fill="#311B92" stroke="none">
<path d="M216 2921 c-66 -27 -122 -53 -124 -60 -2 -7 67 -196 153 -422 87
-225 155 -412 152 -415 -3 -4 -58 17 -121 46 -91 41 -119 50 -130 41 -20 -17
-118 -241 -112 -257 6 -16 0 -13 404 -194 182 -81 319 -137 328 -133 9 3 30
36 46 72 182 402 288 647 283 660 -5 16 -227 121 -256 121 -11 0 -34 -38 -70
-120 -30 -66 -56 -120 -59 -120 -3 0 -72 177 -154 393 -82 215 -155 402 -163
415 -19 31 -39 27 -177 -27z m293 -458 c90 -236 170 -435 177 -443 25 -26 46
1 107 136 32 71 62 133 67 137 12 13 163 -60 157 -75 -3 -7 -37 -85 -77 -173
-40 -88 -99 -221 -132 -295 -33 -74 -64 -138 -67 -142 -5 -6 -573 241 -619
269 -10 6 -6 25 22 85 l35 78 43 -19 c24 -10 85 -37 136 -60 100 -44 129 -50
139 -26 3 9 -70 212 -162 451 -95 247 -164 439 -159 444 12 11 135 58 155 59
11 1 58 -111 178 -426z"/>
</g>
</svg>
